<?xml version="1.0" ?><svg viewBox="0 0 128 128" xmlns="http://www.w3.org/2000/svg"><defs><style>.cls-1{fill:none;}.cls-1,.cls-2{stroke:#0088ce;stroke-miterlimit:10;stroke-width:6px;}.cls-2{fill:#66b8e2;}</style></defs><title/><g data-name="Layer 5" id="Layer_5"><path class="cls-1" d="M27.86,64.64a258.11,258.11,0,0,0,18.25,21.1c8.78,8.78,23.46,24.13,28.69,18.9a5.34,5.34,0,0,0,1.52-4.05,6.56,6.56,0,0,0,7.17-6,6.35,6.35,0,0,0,6.58-6.08s4.3-.25,5.91-1.86c2.28-2.28,2.1-5,.76-6.33C91.84,75.44,77.25,61,77.25,61c-7.09,5.74-12.23.25-12.23.25S54.8,74.18,49.07,66.42,74.6,38.94,74.6,38.94"/><line class="cls-1" x1="76.32" x2="60.88" y1="100.59" y2="85.15"/><line class="cls-1" x1="83.49" x2="67.46" y1="94.6" y2="78.57"/><line class="cls-1" x1="90.07" x2="73.79" y1="88.52" y2="72.24"/><path class="cls-1" d="M94.63,78.23c2.37-2.37,7.23-8.78,7.15-13.93"/><path class="cls-1" d="M38.36,77.08c-2.73,2.73-7.94,5.79-2.29,11.45l15,15c5.32,5.32,10.61,0,12.18-1.55"/><line class="cls-1" x1="37.67" x2="44.09" y1="90.13" y2="83.71"/><line class="cls-1" x1="44.3" x2="50.71" y1="96.75" y2="90.34"/><line class="cls-1" x1="50.42" x2="56.83" y1="102.87" y2="96.45"/><path class="cls-1" d="M53.62,38c2.48,1.83,8.11,5,10.19,7.88"/><rect class="cls-2" height="49.88" rx="2.39" ry="2.39" transform="translate(-7.44 77.91) rotate(-45)" width="13.6" x="83.52" y="23"/><rect class="cls-2" height="49.88" rx="2.39" ry="2.39" transform="translate(44.69 -12.7) rotate(45)" width="13.6" x="30.87" y="22.66"/></g></svg>