<?xml version="1.0" encoding="UTF-8"?>
<svg width="116px" height="38px" viewBox="0 0 116 38" version="1.1" xmlns="http://www.w3.org/2000/svg" xmlns:xlink="http://www.w3.org/1999/xlink">
    <title>BF09AF52-A58C-478A-B7DC-91EBB923FA9F</title>
    <g id="Final" stroke="none" stroke-width="1" fill="none" fill-rule="evenodd">
        <g id="Admin_Home" transform="translate(-32.000000, -17.000000)" fill-rule="nonzero">
            <g id="voicencode_logo" transform="translate(32.000000, 17.000000)">
                <path d="M30.236156,14.9806638 L25.3411989,14.9806638 C24.7893435,14.9806638 24.3423406,15.578355 24.3423406,16.3076479 L24.3423406,20.1460317 C24.3423406,20.8808081 24.7893435,21.4730159 25.3411989,21.4730159 L30.236156,21.4730159 C30.7880114,21.4730159 31.2350143,20.8808081 31.2350143,20.1460317 L31.2350143,16.3076479 C31.2350143,15.578355 30.7880114,14.9806638 30.236156,14.9806638" id="Path" fill="#A63693"></path>
                <path d="M30.236156,7.397114 L25.3411989,7.397114 C24.7893435,7.397114 24.3423406,7.99480519 24.3423406,8.72409812 L24.3423406,12.562482 C24.3423406,13.2972583 24.7893435,13.8894661 25.3411989,13.8894661 L30.236156,13.8894661 C30.7880114,13.8894661 31.2350143,13.2972583 31.2350143,12.562482 L31.2350143,8.72409812 C31.2350143,7.99480519 30.7880114,7.397114 30.236156,7.397114" id="Path" fill="#A63693"></path>
                <path d="M30.236156,1.42108547e-14 L25.3411989,1.42108547e-14 C24.7893435,1.42108547e-14 24.3423406,0.592207792 24.3423406,1.32698413 L24.3423406,5.16536797 C24.3423406,5.89466089 24.7893435,6.49235209 25.3411989,6.49235209 L30.236156,6.49235209 C30.7880114,6.49235209 31.2350143,5.89466089 31.2350143,5.16536797 L31.2350143,1.32698413 C31.2350143,0.592207792 30.7880114,1.42108547e-14 30.236156,1.42108547e-14" id="Path" fill="#A63693"></path>
                <path d="M34.6675547,21.4565657 L39.5625119,21.4565657 C40.1143673,21.4565657 40.5558516,20.8643579 40.5558516,20.1295815 L40.5558516,16.2911977 C40.5558516,15.5619048 40.1143673,14.9642136 39.5625119,14.9642136 L34.6675547,14.9642136 C34.1156993,14.9642136 33.6686965,15.5619048 33.6686965,16.2911977 L33.6686965,20.1295815 C33.6686965,20.8643579 34.1156993,21.4565657 34.6675547,21.4565657" id="Path" fill="#0074BE"></path>
                <path d="M34.6675547,13.8730159 L39.5625119,13.8730159 C40.1143673,13.8730159 40.5558516,13.2808081 40.5558516,12.5460317 L40.5558516,8.70764791 C40.5558516,7.97835498 40.1143673,7.38066378 39.5625119,7.38066378 L34.6675547,7.38066378 C34.1156993,7.38066378 33.6686965,7.97835498 33.6686965,8.70764791 L33.6686965,12.5460317 C33.6686965,13.2808081 34.1156993,13.8730159 34.6675547,13.8730159" id="Path" fill="#0074BE"></path>
                <path d="M43.9939106,21.5059163 L48.8888677,21.5059163 C49.4407231,21.5059163 49.8822074,20.9082251 49.8822074,20.1789322 L49.8822074,16.3405483 C49.8822074,15.605772 49.4407231,15.0135642 48.8888677,15.0135642 L43.9939106,15.0135642 C43.4420552,15.0135642 42.9950523,15.605772 42.9950523,16.3405483 L42.9950523,20.1789322 C42.9950523,20.9082251 43.4420552,21.5059163 43.9939106,21.5059163" id="Path" fill="#A63693"></path>
                <path d="M62.6411037,21.4565657 L67.5415794,21.4565657 C68.0934348,21.4565657 68.5349191,20.8643579 68.5349191,20.1295815 L68.5349191,16.2911977 C68.5349191,15.5619048 68.0934348,14.9642136 67.5415794,14.9642136 L62.6411037,14.9642136 C62.0892483,14.9642136 61.647764,15.5619048 61.647764,16.2911977 L61.647764,20.1295815 C61.647764,20.8643579 62.0947669,21.4565657 62.6411037,21.4565657" id="Path" fill="#A63693"></path>
                <path d="M62.6411037,13.8730159 L67.5415794,13.8730159 C68.0934348,13.8730159 68.5349191,13.2808081 68.5349191,12.5460317 L68.5349191,8.70764791 C68.5349191,7.97835498 68.0934348,7.38066378 67.5415794,7.38066378 L62.6411037,7.38066378 C62.0892483,7.38066378 61.647764,7.97835498 61.647764,8.70764791 L61.647764,12.5460317 C61.647764,13.2808081 62.0947669,13.8730159 62.6411037,13.8730159" id="Path" fill="#A63693"></path>
                <path d="M71.9674596,21.5059163 L76.8679353,21.5059163 C77.4197907,21.5059163 77.861275,20.9082251 77.861275,20.1789322 L77.861275,16.3405483 C77.861275,15.605772 77.4142721,15.0135642 76.8679353,15.0135642 L71.9674596,15.0135642 C71.4156042,15.0135642 70.9741199,15.605772 70.9741199,16.3405483 L70.9741199,20.1789322 C70.9741199,20.9082251 71.4211227,21.5059163 71.9674596,21.5059163" id="Path" fill="#0074BE"></path>
                <path d="M16.0038059,21.5059163 L20.8987631,21.5059163 C21.4506185,21.5059163 21.8976213,20.9082251 21.8976213,20.1789322 L21.8976213,16.3405483 C21.8976213,15.605772 21.4506185,15.0135642 20.8987631,15.0135642 L16.0038059,15.0135642 C15.4519505,15.0135642 15.0049477,15.605772 15.0049477,16.3405483 L15.0049477,20.1789322 C15.0049477,20.9082251 15.4519505,21.5059163 16.0038059,21.5059163" id="Path" fill="#0074BE"></path>
                <path d="M53.3147479,21.5059163 L58.2152236,21.5059163 C58.767079,21.5059163 59.2085633,20.9082251 59.2085633,20.1789322 L59.2085633,16.3405483 C59.2085633,15.605772 58.767079,15.0135642 58.2152236,15.0135642 L53.3147479,15.0135642 C52.7628925,15.0135642 52.3214082,15.605772 52.3214082,16.3405483 L52.3214082,20.1789322 C52.3214082,20.9082251 52.768411,21.5059163 53.3147479,21.5059163" id="Path" fill="#0074BE"></path>
                <path d="M95.520647,14.9806638 L90.6201713,14.9806638 C90.0683159,14.9806638 89.6268316,15.578355 89.6268316,16.3076479 L89.6268316,20.1460317 C89.6268316,20.8808081 90.0683159,21.4730159 90.6201713,21.4730159 L95.520647,21.4730159 C96.0725024,21.4730159 96.5139867,20.8808081 96.5139867,20.1460317 L96.5139867,16.3076479 C96.5139867,15.578355 96.0669838,14.9806638 95.520647,14.9806638" id="Path" fill="#0074BE"></path>
                <path d="M95.520647,7.397114 L90.6201713,7.397114 C90.0683159,7.397114 89.6268316,7.99480519 89.6268316,8.72409812 L89.6268316,12.562482 C89.6268316,13.2972583 90.0683159,13.8894661 90.6201713,13.8894661 L95.520647,13.8894661 C96.0725024,13.8894661 96.5139867,13.2972583 96.5139867,12.562482 L96.5139867,8.72409812 C96.5139867,7.99480519 96.0669838,7.397114 95.520647,7.397114" id="Path" fill="#0074BE"></path>
                <path d="M95.520647,1.42108547e-14 L90.6201713,1.42108547e-14 C90.0683159,1.42108547e-14 89.6268316,0.592207792 89.6268316,1.32698413 L89.6268316,5.16536797 C89.6268316,5.89466089 90.0683159,6.49235209 90.6201713,6.49235209 L95.520647,6.49235209 C96.0725024,6.49235209 96.5139867,5.89466089 96.5139867,5.16536797 L96.5139867,1.32698413 C96.5139867,0.592207792 96.0669838,1.42108547e-14 95.520647,1.42108547e-14" id="Path" fill="#0074BE"></path>
                <path d="M99.9465271,21.4565657 L104.852521,21.4565657 C105.404377,21.4565657 105.845861,20.8643579 105.845861,20.1295815 L105.845861,16.2911977 C105.845861,15.5619048 105.398858,14.9642136 104.852521,14.9642136 L99.9520457,14.9642136 C99.4001903,14.9642136 98.958706,15.5619048 98.958706,16.2911977 L98.958706,20.1295815 C98.958706,20.8643579 99.4001903,21.4565657 99.9520457,21.4565657" id="Path" fill="#A63693"></path>
                <path d="M99.9465271,13.8730159 L104.852521,13.8730159 C105.404377,13.8730159 105.845861,13.2808081 105.845861,12.5460317 L105.845861,8.70764791 C105.845861,7.97835498 105.398858,7.38066378 104.852521,7.38066378 L99.9520457,7.38066378 C99.4001903,7.38066378 98.958706,7.97835498 98.958706,8.70764791 L98.958706,12.5460317 C98.958706,13.2808081 99.4001903,13.8730159 99.9520457,13.8730159" id="Path" fill="#A63693"></path>
                <path d="M109.267364,21.5059163 L114.162322,21.5059163 C114.714177,21.5059163 115.16118,20.9082251 115.16118,20.1789322 L115.16118,16.3405483 C115.16118,15.605772 114.714177,15.0135642 114.162322,15.0135642 L109.267364,15.0135642 C108.715509,15.0135642 108.274025,15.605772 108.274025,16.3405483 L108.274025,20.1789322 C108.274025,20.9082251 108.715509,21.5059163 109.267364,21.5059163" id="Path" fill="#0074BE"></path>
                <path d="M81.2938154,21.5059163 L86.1942912,21.5059163 C86.7461465,21.5059163 87.1876308,20.9082251 87.1876308,20.1789322 L87.1876308,16.3405483 C87.1876308,15.605772 86.740628,15.0135642 86.1942912,15.0135642 L81.2938154,15.0135642 C80.74196,15.0135642 80.3004757,15.605772 80.3004757,16.3405483 L80.3004757,20.1789322 C80.3004757,20.9082251 80.7474786,21.5059163 81.2938154,21.5059163" id="Path" fill="#A63693"></path>
                <polygon id="Path" fill="#A63693" points="5.92692674 37.9835498 -1.42108547e-14 24.4011544 2.72616556 24.4011544 6.87611798 34.2164502 10.832921 24.4011544 13.2114177 24.4011544 7.57697431 37.9835498"></polygon>
                <path d="M13.4542341,29.4787879 C13.4542341,28.4661857 13.603235,27.7752766 13.9012369,27.4060606 C14.1992388,27.0386724 14.778687,26.8577201 15.6395814,26.8577201 L22.1404377,26.8577201 C23.0068506,26.8577201 23.5862988,27.0441558 23.8787821,27.4060606 C24.2369917,28.0354065 24.3911586,28.7592052 24.3202664,29.4787879 L24.3202664,35.3515152 C24.3202664,36.3714286 24.1712655,37.0623377 23.867745,37.4297258 C23.5642245,37.797114 22.990295,37.9780664 22.1404377,37.9780664 L15.6395814,37.9780664 C14.778687,37.9780664 14.1992388,37.7916306 13.9012369,37.4297258 C13.603235,37.0678211 13.4542341,36.3714286 13.4542341,35.3515152 L13.4542341,29.4787879 Z M15.5016175,35.8505051 L22.272883,35.8505051 L22.272883,28.8975469 L15.5016175,28.8975469 L15.5016175,35.8505051 Z" id="Shape" fill="#A63693"></path>
                <polygon id="Path" fill="#A63693" points="26.687726 37.9835498 26.687726 26.8686869 28.7240723 26.8686869 28.7240723 38"></polygon>
                <path d="M38.6629876,28.8975469 L33.1444339,28.8975469 L33.1444339,35.8505051 L38.6629876,35.8505051 L38.6629876,33.4871573 L40.7269267,34.0354978 L40.7269267,35.3460317 C40.7269267,36.3549784 40.5779258,37.0458874 40.2744053,37.418759 C39.9708849,37.7916306 39.3859182,37.9670996 38.5250238,37.9670996 L33.2768792,37.9670996 C32.6480764,38.0444865 32.01674,37.8440662 31.5495718,37.418759 C31.2460514,37.0513709 31.0970504,36.3604618 31.0970504,35.3405483 L31.0970504,29.4787879 C31.0970504,28.4661857 31.2460514,27.7752766 31.5440533,27.4060606 C31.8475737,27.0386724 32.4215033,26.8577201 33.2768792,26.8577201 L38.5250238,26.8577201 C39.3914367,26.8577201 39.9764034,27.0441558 40.2744053,27.4060606 C40.5724072,27.7679654 40.7269267,28.4643579 40.7269267,29.4787879 L40.7269267,30.575469 L38.6629876,30.9757576 L38.6629876,28.8975469 Z" id="Path" fill="#A63693"></path>
                <polygon id="Path" fill="#0074BE" points="43.5965747 37.9835498 43.5965747 24.4011544 54.0818268 24.4011544 54.0818268 26.7151515 45.991627 26.7151515 45.991627 29.7474747 50.7265461 29.7474747 50.7265461 32.0614719 45.991627 32.0614719 45.991627 35.4282828 54.203235 35.4282828 54.203235 37.9835498"></polygon>
                <polygon id="Path" fill="#0074BE" points="56.6865842 37.9835498 56.6865842 26.8686869 58.0938154 26.8686869 65.2237869 34.2603175 65.2237869 26.8686869 67.0725024 26.8686869 67.0725024 38 65.6707897 38 58.5463368 30.4767677 58.5463368 37.9835498"></polygon>
                <path d="M77.0224548,28.8975469 L71.503901,28.8975469 L71.503901,35.8505051 L77.0224548,35.8505051 L77.0224548,33.4871573 L79.0863939,34.0354978 L79.0863939,35.3460317 C79.1578772,36.0676694 78.9975322,36.7932641 78.6283539,37.418759 C78.3248335,37.7916306 77.7453853,37.9670996 76.884491,37.9670996 L71.6363463,37.9670996 C70.7864891,37.9670996 70.2125595,37.7806638 69.909039,37.418759 C69.6055186,37.0568543 69.450999,36.3604618 69.450999,35.3405483 L69.450999,29.4787879 C69.3797507,28.7578448 69.5380296,28.0328648 69.9035205,27.4060606 C70.2070409,27.0386724 70.7809705,26.8577201 71.6363463,26.8577201 L76.884491,26.8577201 C77.7509039,26.8577201 78.3358706,27.0441558 78.6338725,27.4060606 C78.9318744,27.7679654 79.0863939,28.4643579 79.0863939,29.4787879 L79.0863939,30.575469 L77.0224548,30.9757576 L77.0224548,28.8975469 Z" id="Path" fill="#0074BE"></path>
                <path d="M81.0565176,29.4787879 C81.0565176,28.4661857 81.2055186,27.7752766 81.5035205,27.4060606 C81.8015224,27.0386724 82.3809705,26.8577201 83.2363463,26.8577201 L89.7372027,26.8577201 C90.6036156,26.8577201 91.1830637,27.0441558 91.4810657,27.4060606 C91.8392753,28.0354065 91.9934421,28.7592052 91.92255,29.4787879 L91.92255,35.3515152 C91.9945997,36.0742537 91.8363061,36.8012192 91.4700285,37.4297258 C91.1720266,37.797114 90.5925785,37.9780664 89.7372027,37.9780664 L83.2363463,37.9780664 C82.3809705,37.9780664 81.8015224,37.7916306 81.5035205,37.4297258 C81.2055186,37.0678211 81.0565176,36.3714286 81.0565176,35.3515152 L81.0565176,29.4787879 Z M83.103901,35.8505051 L89.8751665,35.8505051 L89.8751665,28.8975469 L83.103901,28.8975469 L83.103901,35.8505051 Z" id="Shape" fill="#0074BE"></path>
                <path d="M94.2679353,37.9835498 L94.2679353,26.8686869 L99.9244529,26.8686869 C101.323336,26.7791557 102.691245,27.3043907 103.666032,28.3053391 C104.530606,29.2594517 104.964732,30.6229918 104.968411,32.3959596 C104.968411,34.2658009 104.510371,35.6860029 103.588773,36.6017316 C102.667174,37.5174603 101.27098,38 99.4112274,38 L94.2679353,37.9835498 Z M96.337393,35.8998557 L98.9752617,35.8998557 C100.415604,35.8998557 101.4255,35.6256854 101.999429,35.0663781 C102.573359,34.5070707 102.865842,33.5694084 102.865842,32.2533911 C102.934936,31.3410513 102.681189,30.4333804 102.14843,29.6871573 C101.576496,29.0926985 100.766209,28.7847377 99.9410086,28.8481962 L96.3318744,28.8481962 L96.337393,35.8998557 Z" id="Shape" fill="#0074BE"></path>
                <polygon id="Path" fill="#0074BE" points="106.883349 37.9835498 106.883349 26.8686869 115.889629 26.8686869 115.889629 28.8372294 108.947288 28.8372294 108.947288 31.2554113 112.992388 31.2554113 112.992388 33.1691198 108.947288 33.1691198 108.947288 35.9108225 116 35.9108225 116 37.9945166"></polygon>
            </g>
        </g>
    </g>
</svg>